<svg xmlns="http://www.w3.org/2000/svg" width="25.087" height="12.322" viewBox="0 0 25.087 12.322">
  <path id="Union_12" data-name="Union 12" d="M19.235,2770.322V2768.3a3.412,3.412,0,0,0-1.593-2.789c.283-.024.55-.041.784-.041,1.885,0,5.661.946,5.661,2.83v2.022Zm-12.938,0V2768.3c0-1.884,3.776-2.83,5.66-2.83s5.661.946,5.661,2.83v2.022Zm-6.3,0V2768.3c0-1.884,3.776-2.83,5.661-2.83.234,0,.5.016.784.041a3.412,3.412,0,0,0-1.593,2.789v2.022Zm16-8.9a2.422,2.422,0,1,1,2.426,2.426A2.423,2.423,0,0,1,16,2761.426Zm-6.469,0a2.422,2.422,0,1,1,2.425,2.426A2.423,2.423,0,0,1,9.531,2761.426Zm-6.288,0a2.422,2.422,0,1,1,2.418,2.426A2.416,2.416,0,0,1,3.243,2761.426Z" transform="translate(0.5 -2758.5)" fill="none" stroke="#333" stroke-width="1"/>
</svg>
