<svg xmlns="http://www.w3.org/2000/svg" width="19.609" height="17.595" viewBox="0 0 19.609 17.595">
  <path id="Icon_awesome-piggy-bank" data-name="Icon awesome-piggy-bank" d="M17.605,7.042h-.927A5.045,5.045,0,0,0,15.5,5.391L16.1,3.018H15.09A3,3,0,0,0,12.8,4.1a4.986,4.986,0,0,0-.723-.072H8.048A5.035,5.035,0,0,0,3.119,8.048H1.761a.755.755,0,0,1-.739-.905.774.774,0,0,1,.77-.6h.031a.189.189,0,0,0,.189-.189V5.721a.189.189,0,0,0-.189-.189A1.8,1.8,0,0,0,.017,7.061,1.762,1.762,0,0,0,1.761,9.054H3.019a5.009,5.009,0,0,0,2.012,4v2.537a.5.5,0,0,0,.5.5H7.546a.5.5,0,0,0,.5-.5V14.083h4.024v1.509a.5.5,0,0,0,.5.5h2.012a.5.5,0,0,0,.5-.5V13.055a5.03,5.03,0,0,0,.984-.984h1.531a.5.5,0,0,0,.5-.5V7.545A.5.5,0,0,0,17.605,7.042ZM13.581,9.054a.5.5,0,1,1,.5-.5A.5.5,0,0,1,13.581,9.054ZM8.048,3.018h4.024c.17,0,.336.013.5.025,0-.009,0-.016,0-.025a3.018,3.018,0,1,0-6.036,0c0,.066.016.129.019.195A5.976,5.976,0,0,1,8.048,3.018Z" transform="translate(0.751 0.75)" fill="none" stroke="#333" stroke-width="1.5"/>
</svg>
