<svg xmlns="http://www.w3.org/2000/svg" width="16.659" height="16.659" viewBox="0 0 16.659 16.659">
  <g id="Icon_feather-server" data-name="Icon feather-server" transform="translate(-2.25 -2.25)">
    <path id="Path_127" data-name="Path 127" d="M4.516,3H16.643a1.516,1.516,0,0,1,1.516,1.516V7.548a1.516,1.516,0,0,1-1.516,1.516H4.516A1.516,1.516,0,0,1,3,7.548V4.516A1.516,1.516,0,0,1,4.516,3Z" fill="none" stroke="#0fc600" stroke-linecap="round" stroke-linejoin="round" stroke-width="1.5"/>
    <path id="Path_128" data-name="Path 128" d="M4.516,21H16.643a1.516,1.516,0,0,1,1.516,1.516v3.032a1.516,1.516,0,0,1-1.516,1.516H4.516A1.516,1.516,0,0,1,3,25.548V22.516A1.516,1.516,0,0,1,4.516,21Z" transform="translate(0 -8.904)" fill="none" stroke="#0fc600" stroke-linecap="round" stroke-linejoin="round" stroke-width="1.5"/>
    <path id="Path_129" data-name="Path 129" d="M9,9H9" transform="translate(-2.968 -2.968)" fill="none" stroke="#0fc600" stroke-linecap="round" stroke-linejoin="round" stroke-width="1.5"/>
    <path id="Path_130" data-name="Path 130" d="M9,27H9" transform="translate(-2.968 -11.873)" fill="none" stroke="#0fc600" stroke-linecap="round" stroke-linejoin="round" stroke-width="1.5"/>
  </g>
</svg>
