<svg xmlns="http://www.w3.org/2000/svg" width="26.619" height="25.5" viewBox="0 0 26.619 25.5">
  <g id="Icon_feather-shopping-cart" data-name="Icon feather-shopping-cart" transform="translate(1 1)">
    <path id="Path_162" data-name="Path 162" d="M14.238,31.119A1.119,1.119,0,1,1,13.119,30,1.119,1.119,0,0,1,14.238,31.119Z" transform="translate(-4.167 -8.738)" fill="none" stroke="#333" stroke-linecap="round" stroke-linejoin="round" stroke-width="2"/>
    <path id="Path_163" data-name="Path 163" d="M30.738,31.119A1.119,1.119,0,1,1,29.619,30,1.119,1.119,0,0,1,30.738,31.119Z" transform="translate(-8.357 -8.738)" fill="none" stroke="#333" stroke-linecap="round" stroke-linejoin="round" stroke-width="2"/>
    <path id="Path_164" data-name="Path 164" d="M1.5,1.5H5.976l3,14.984a2.238,2.238,0,0,0,2.238,1.8H22.091a2.238,2.238,0,0,0,2.238-1.8L26.119,7.1H7.1" transform="translate(-1.5 -1.5)" fill="none" stroke="#333" stroke-linecap="round" stroke-linejoin="round" stroke-width="2"/>
  </g>
</svg>
