<svg xmlns="http://www.w3.org/2000/svg" width="12.125" height="12.125" viewBox="0 0 12.125 12.125">
  <path id="Icon_ionic-logo-whatsapp" data-name="Icon ionic-logo-whatsapp" d="M8.422,2.25A5.929,5.929,0,0,0,2.47,8.156a5.845,5.845,0,0,0,.854,3.05L2.25,14.375l3.3-1.047A5.921,5.921,0,1,0,8.422,2.25Zm2.96,8.149a1.537,1.537,0,0,1-1.053.679c-.279.015-.287.216-1.809-.445A6.21,6.21,0,0,1,6.011,8.26,2.919,2.919,0,0,1,5.45,6.678a1.687,1.687,0,0,1,.579-1.238.583.583,0,0,1,.412-.174c.12,0,.2,0,.286,0s.222-.019.337.288.391,1.06.426,1.136a.276.276,0,0,1,0,.264,1.034,1.034,0,0,1-.161.246c-.079.085-.167.191-.238.256s-.162.151-.078.3a4.555,4.555,0,0,0,.806,1.075,4.153,4.153,0,0,0,1.194.793c.149.081.238.072.331-.025s.4-.426.5-.573.207-.118.345-.063.87.448,1.02.529.249.123.284.187A1.25,1.25,0,0,1,11.382,10.4Z" transform="translate(-2.25 -2.25)" fill="#0fc600"/>
</svg>
