<svg xmlns="http://www.w3.org/2000/svg" width="23.655" height="23.655" viewBox="0 0 23.655 23.655">
  <path id="Icon_awesome-whatsapp" data-name="Icon awesome-whatsapp" d="M20.112,5.687A11.726,11.726,0,0,0,1.663,19.833L0,25.905l6.215-1.632a11.686,11.686,0,0,0,5.6,1.426h.005A11.835,11.835,0,0,0,23.655,13.977a11.768,11.768,0,0,0-3.543-8.29Zm-8.29,18.037a9.726,9.726,0,0,1-4.963-1.357l-.354-.211-3.686.966.982-3.6-.232-.37a9.762,9.762,0,1,1,18.106-5.18,9.852,9.852,0,0,1-9.853,9.747Zm5.344-7.3c-.29-.148-1.732-.855-2-.95s-.465-.148-.66.148-.755.95-.929,1.151-.343.222-.634.074a7.973,7.973,0,0,1-3.987-3.485c-.3-.517.3-.48.861-1.6a.543.543,0,0,0-.026-.512c-.074-.148-.66-1.589-.9-2.175-.238-.57-.48-.491-.66-.5s-.364-.011-.56-.011a1.085,1.085,0,0,0-.781.364,3.291,3.291,0,0,0-1.024,2.445,5.738,5.738,0,0,0,1.193,3.031A13.088,13.088,0,0,0,12.06,18.83c1.859.8,2.587.871,3.517.734a3,3,0,0,0,1.975-1.394,2.45,2.45,0,0,0,.169-1.394C17.652,16.644,17.456,16.57,17.166,16.427Z" transform="translate(0 -2.25)" fill="#00ba24"/>
</svg>
